<svg width="293" height="94" viewBox="0 0 293 94" fill="none" xmlns="http://www.w3.org/2000/svg">
<path fill-rule="evenodd" clip-rule="evenodd" d="M73.0848 23.6581L79.7637 38.7166H66.5263L69.806 31.1874C70.0981 30.5847 70.308 29.9649 70.6153 29.3252L73.085 23.6583L73.0848 23.6581ZM73.9895 80.9541V69.6939H69.7846V68.1975H79.8868V69.6939H75.6819V80.9541H73.9895ZM84.8587 80.9541V68.1973H94.0699V69.6937H86.5511V73.6135H93.5886V75.1102H86.5511V79.4577H94.3725V80.9541H84.8585H84.8587ZM108.986 76.4792L110.679 76.9067C110.325 78.2934 109.69 79.3478 108.772 80.0751C107.855 80.8025 106.732 81.1679 105.405 81.1679C104.033 81.1679 102.917 80.8888 102.055 80.3274C101.194 79.7693 100.541 78.9584 100.093 77.8985C99.6445 76.8353 99.4186 75.6979 99.4186 74.4807C99.4186 73.1533 99.6711 71.9952 100.179 71.0064C100.687 70.0176 101.408 69.266 102.344 68.7522C103.279 68.2387 104.309 67.9832 105.432 67.9832C106.709 67.9832 107.781 68.3072 108.648 68.9572C109.518 69.6074 110.124 70.5192 110.465 71.6948L108.808 72.0869C108.514 71.1602 108.084 70.4834 107.522 70.0617C106.961 69.637 106.255 69.4263 105.402 69.4263C104.425 69.4263 103.606 69.661 102.95 70.13C102.293 70.5991 101.83 71.2317 101.566 72.0218C101.299 72.8145 101.165 73.6311 101.165 74.4713C101.165 75.5552 101.322 76.5023 101.637 77.3102C101.952 78.1208 102.442 78.7237 103.107 79.1246C103.772 79.5256 104.49 79.7243 105.266 79.7243C106.21 79.7243 107.006 79.4513 107.659 78.9077C108.312 78.3615 108.755 77.5537 108.986 76.4788V76.4792ZM116.031 80.9541V68.1973H117.723V73.4531H124.315V68.1973H126.008V80.9541H124.315V74.9498H117.723V80.9541H116.031ZM132.001 80.9541V68.1973H133.736L140.429 78.2101V68.1973H142.05V80.9541H140.315L133.622 70.9413V80.9541H132.001H132.001ZM147.562 74.7452C147.562 72.6307 148.132 70.9738 149.27 69.7772C150.407 68.5805 151.874 67.9836 153.673 67.9836C154.852 67.9836 155.912 68.2656 156.859 68.827C157.804 69.3881 158.525 70.172 159.021 71.1788C159.517 72.1826 159.766 73.3227 159.766 74.5968C159.766 75.8885 159.505 77.0465 158.983 78.0651C158.46 79.0867 157.72 79.8586 156.765 80.3812C155.805 80.9068 154.772 81.168 153.664 81.168C152.462 81.168 151.39 80.877 150.443 80.2979C149.498 79.719 148.78 78.9289 148.293 77.9255C147.805 76.9248 147.562 75.8647 147.562 74.7454V74.7452ZM149.308 74.7748C149.308 76.31 149.721 77.5183 150.546 78.4001C151.372 79.2821 152.408 79.7245 153.655 79.7245C154.926 79.7245 155.969 79.2791 156.791 78.3883C157.611 77.4978 158.021 76.2325 158.021 74.5936C158.021 73.5572 157.845 72.6515 157.495 71.8794C157.145 71.1073 156.631 70.5076 155.957 70.0829C155.28 69.6582 154.523 69.4444 153.682 69.4444C152.488 69.4444 151.461 69.8542 150.6 70.6738C149.739 71.4934 149.308 72.8594 149.308 74.7748V74.7748ZM165.059 80.9541V68.1973H166.751V79.4575H173.023V80.9539H165.059V80.9541ZM177.716 74.7452C177.716 72.6307 178.286 70.9738 179.423 69.7772C180.561 68.5805 182.027 67.9836 183.827 67.9836C185.006 67.9836 186.066 68.2656 187.013 68.827C187.957 69.3881 188.679 70.172 189.175 71.1788C189.671 72.1826 189.92 73.3227 189.92 74.5968C189.92 75.8885 189.659 77.0465 189.136 78.0651C188.613 79.0867 187.874 79.8586 186.918 80.3812C185.959 80.9068 184.925 81.168 183.818 81.168C182.615 81.168 181.543 80.877 180.596 80.2979C179.652 79.719 178.933 78.9289 178.446 77.9255C177.959 76.9248 177.716 75.8647 177.716 74.7454V74.7452ZM179.462 74.7748C179.462 76.31 179.875 77.5183 180.7 78.4001C181.525 79.2821 182.562 79.7245 183.809 79.7245C185.08 79.7245 186.122 79.2791 186.945 78.3883C187.764 77.4978 188.174 76.2325 188.174 74.5936C188.174 73.5572 187.999 72.6515 187.649 71.8794C187.298 71.1073 186.784 70.5076 186.11 70.0829C185.433 69.6582 184.676 69.4444 183.836 69.4444C182.642 69.4444 181.615 69.8542 180.754 70.6738C179.892 71.4934 179.462 72.8594 179.462 74.7748V74.7748ZM201.252 75.9476V74.4509H206.651V79.1784C205.822 79.8376 204.967 80.3364 204.085 80.6688C203.203 81.0016 202.298 81.1679 201.371 81.1679C200.118 81.1679 198.981 80.9006 197.956 80.3632C196.935 79.8286 196.16 79.0507 195.64 78.0381C195.118 77.0223 194.856 75.8881 194.856 74.6381C194.856 73.3968 195.115 72.2387 195.634 71.1606C196.154 70.0857 196.899 69.287 197.873 68.7674C198.847 68.2447 199.97 67.9834 201.241 67.9834C202.161 67.9834 202.996 68.132 203.741 68.4318C204.486 68.7315 205.071 69.1474 205.493 69.679C205.918 70.2133 206.238 70.9113 206.458 71.7693L204.935 72.1852C204.742 71.5378 204.504 71.0272 204.222 70.653C203.937 70.2819 203.533 69.9848 203.005 69.7623C202.479 69.5395 201.894 69.4267 201.25 69.4267C200.481 69.4267 199.816 69.5455 199.251 69.78C198.69 70.0146 198.239 70.3234 197.891 70.7095C197.547 71.0925 197.28 71.5144 197.09 71.9715C196.766 72.7643 196.603 73.6195 196.603 74.543C196.603 75.6833 196.798 76.6364 197.188 77.4055C197.58 78.1718 198.15 78.7417 198.895 79.1129C199.644 79.484 200.436 79.671 201.277 79.671C202.007 79.671 202.72 79.5286 203.414 79.2463C204.109 78.9612 204.635 78.6614 204.994 78.3378V75.9476H201.253H201.252ZM215.931 80.9539V75.5497L211.014 68.1971H213.045L215.566 72.0574C216.035 72.7731 216.472 73.4887 216.869 74.2042C217.259 73.536 217.731 72.7877 218.28 71.9563L220.75 68.1969H222.719L217.624 75.5495V80.9537H215.931V80.9539ZM117.41 29.3656H117.653C117.832 28.5975 118.927 26.119 119.3 25.1847L121.817 18.9566C122.262 17.8771 122.183 18.2259 121.643 16.8747L119.96 12.7287H110.73L114.096 21.0216C114.673 22.4637 115.199 23.7164 115.779 25.1673C116.084 25.93 116.327 26.4736 116.629 27.2319C116.834 27.7447 117.37 28.8939 117.409 29.3654L117.41 29.3656ZM133.683 47.2172C133.518 46.509 131.279 41.2864 131.133 40.6597C130.707 40.9717 129.048 45.5264 128.809 46.1089C126.215 52.4376 126.26 50.8185 127.593 54.1572L128.583 56.6896H139.633C139.838 55.8129 140.352 54.8378 140.692 53.9836C145.413 42.1016 150.479 30.1269 155.23 18.2455L157.485 12.7287H147.648L140.691 29.9379C139.515 32.8772 138.367 35.6931 137.204 38.5953L134.584 45.0835C134.423 45.487 134.312 45.7643 134.169 46.1245L133.683 47.217V47.2172ZM206.547 56.6896H226.341C226.793 56.6896 227.21 55.352 227.451 54.7637L229.793 49.4542C229.984 48.9997 230.185 48.8217 230.228 48.3105H216.141V12.7289H206.547V56.6896H206.547ZM109.031 56.6896H120.081L121.133 53.9766C121.353 53.4868 121.495 53.0969 121.695 52.5951C126.208 41.2356 131.099 29.7044 135.625 18.315L137.307 14.1675C137.51 13.6662 137.762 13.325 137.812 12.7289H128.583C128.431 13.379 128.065 14.2072 127.802 14.8624L125.251 21.2983C124.951 22.0454 124.724 22.6778 124.436 23.3978L121.817 29.8866C120.662 32.77 119.595 35.5006 118.434 38.4045C118.134 39.1531 117.919 39.7578 117.619 40.5041C117.267 41.3812 115.142 46.6205 115.103 47.0965H114.859C114.701 46.4153 114.333 45.6602 114.062 44.9794C113.749 44.1979 113.504 43.5839 113.195 42.8104L101.258 12.7291H91.3003C91.3457 13.2719 92.0994 14.8738 92.3429 15.4519L100.166 34.7097C101.634 38.3784 103.142 41.97 104.624 45.6738C105.18 47.0616 108.983 56.1189 109.031 56.69L109.031 56.6896ZM13.4575 24.387C13.4575 27.1989 14.0172 28.9694 15.606 30.861C16.9592 32.4723 18.5779 33.5031 20.5529 34.293C23.3612 35.4159 26.1382 36.1314 29.0446 36.9738C32.7778 38.0558 38.7164 39.2468 38.7164 44.0601C38.7164 47.5072 35.7401 49.0634 32.9072 49.5446C31.532 49.7784 30.7633 49.6851 29.3656 49.6461C27.4153 49.5928 25.3683 48.6165 23.9354 47.5472C20.7489 45.1702 21.7977 42.8461 20.9864 42.8461H12C12 51.3289 21.5681 56.8115 29.4872 56.8115C33.3837 56.8115 35.8633 56.7392 39.4987 55.2857C40.4741 54.896 41.6665 54.2883 42.4754 53.7693C45.2275 52.0036 47.6964 48.9224 47.9387 45.5098C48.3235 40.0988 46.2733 36.1778 41.6329 33.8577C37.5935 31.8375 31.7831 31.0486 27.6194 29.6546C25.7988 29.0454 22.8079 27.6526 22.8079 25.3587C22.8079 22.8718 23.2648 21.5034 25.4244 20.2026C28.4473 18.3811 34.988 18.3184 37.3831 23.1703C37.6982 23.8081 38.0887 25.0431 38.1099 25.9658H47.3388C47.3388 24.5165 47.2222 23.6038 46.7789 22.2749C46.6031 21.7481 46.5014 21.4237 46.2883 20.9441C43.7864 15.3329 37.7725 12 31.3089 12C27.3515 12 24.1673 12.2165 20.6624 13.9831C16.8237 15.9184 13.4573 19.1128 13.4573 24.387H13.4575ZM175.458 23.6579H175.701C175.841 24.2618 176.2 24.9975 176.471 25.5605L181.34 36.7219C181.544 37.2125 182.1 38.2707 182.138 38.7164H168.9L170.514 34.9868C170.796 34.3319 171.038 33.73 171.33 33.1303C171.632 32.5067 171.877 31.8107 172.18 31.187L175.458 23.6579ZM151.17 56.6896H161.007C161.156 56.0496 165.259 46.8095 165.621 46.1247H185.537C185.679 46.7302 185.832 46.9008 186.058 47.4253C186.283 47.9463 186.444 48.2783 186.647 48.7789L190.152 56.6896H199.867L189.626 33.4136C189.401 32.9352 189.248 32.5552 189.019 32.0782C188.563 31.1285 188.252 30.2449 187.804 29.2851C186.944 27.4438 186.253 25.6472 185.375 23.8205C184.956 22.9479 180.591 13.1283 180.558 12.7291H170.6L169.403 15.417C168.331 18.0519 166.871 20.9647 165.76 23.6761L164.569 26.3701C164.119 27.3078 163.763 28.1946 163.348 29.1582C162.94 30.1065 162.51 31.0096 162.102 31.9184L151.17 56.6898L151.17 56.6896ZM256.094 23.6579L257.918 27.4207C258.922 29.6526 261.973 36.9742 262.895 38.7164H249.536C249.633 38.3017 249.767 38.169 249.936 37.7801C251.507 34.1639 253.681 28.979 255.285 25.642L256.095 23.6579H256.094ZM231.806 56.6896H241.643C241.829 55.888 244.496 50.1985 245.06 48.8135L246.257 46.1249H266.052C266.591 46.8169 269.978 55.1574 270.788 56.6898H280.504L272.084 37.5434C270.924 35.1304 269.666 31.8365 268.44 29.2851L261.785 14.2026C261.573 13.681 261.343 13.3642 261.194 12.7289H251.236L231.806 56.6896H231.806ZM48.7963 56.6896H58.6328C58.6701 56.2426 59.4864 54.5765 59.7291 54.0212L63.2473 46.1247H83.1635C83.2856 46.6496 83.4717 46.9675 83.6661 47.4433L85.4189 51.3983C85.8042 52.3228 86.171 53.136 86.5663 54.016C86.9521 54.8738 87.3466 55.8728 87.7787 56.6894H97.4941C97.2881 56.2613 97.1273 55.7951 96.9211 55.3187L87.8298 34.7788C85.6498 29.5312 82.8521 23.6663 80.5801 18.3483C80.3442 17.7952 78.2217 13.17 78.1852 12.7287H68.2271L65.1934 19.5311C64.9923 19.9768 64.7707 20.4662 64.6003 20.8818C64.205 21.8476 63.7837 22.7432 63.3714 23.6599C61.7197 27.3358 60.1608 31.033 58.5095 34.7073L48.7965 56.6896H48.7963Z" fill="black"/>
</svg>
