<svg width="269" height="94" viewBox="0 0 269 94" fill="none" xmlns="http://www.w3.org/2000/svg">
<path fill-rule="evenodd" clip-rule="evenodd" d="M61.0848 23.6581L67.7637 38.7166H54.5263L57.806 31.1874C58.0981 30.5847 58.308 29.9649 58.6153 29.3252L61.085 23.6583L61.0848 23.6581ZM61.9895 80.9541V69.6939H57.7846V68.1975H67.8868V69.6939H63.6819V80.9541H61.9895ZM72.8587 80.9541V68.1973H82.0699V69.6937H74.5511V73.6135H81.5886V75.1102H74.5511V79.4577H82.3725V80.9541H72.8585H72.8587ZM96.9863 76.4792L98.6788 76.9067C98.3254 78.2934 97.6899 79.3478 96.7724 80.0751C95.8547 80.8025 94.7322 81.1679 93.405 81.1679C92.033 81.1679 90.9167 80.8888 90.0555 80.3274C89.1943 79.7693 88.5411 78.9584 88.093 77.8985C87.6445 76.8353 87.4186 75.6979 87.4186 74.4807C87.4186 73.1533 87.6711 71.9952 88.1789 71.0064C88.6867 70.0176 89.4082 69.266 90.3437 68.7522C91.2792 68.2387 92.3092 67.9832 93.4317 67.9832C94.7088 67.9832 95.7806 68.3072 96.6479 68.9572C97.5177 69.6074 98.1236 70.5192 98.4652 71.6948L96.8081 72.0869C96.5143 71.1602 96.0838 70.4834 95.5225 70.0617C94.9613 69.637 94.2546 69.4263 93.4022 69.4263C92.4253 69.4263 91.6057 69.661 90.9496 70.13C90.2934 70.5991 89.8302 71.2317 89.5657 72.0218C89.2986 72.8145 89.1647 73.6311 89.1647 74.4713C89.1647 75.5552 89.3222 76.5023 89.6368 77.3102C89.9516 78.1208 90.4416 78.7237 91.1067 79.1246C91.7719 79.5256 92.4904 79.7243 93.2655 79.7243C94.21 79.7243 95.0057 79.4513 95.6589 78.9077C96.3121 78.3615 96.7546 77.5537 96.9863 76.4788V76.4792ZM104.031 80.9541V68.1973H105.723V73.4531H112.315V68.1973H114.008V80.9541H112.315V74.9498H105.723V80.9541H104.031ZM120.001 80.9541V68.1973H121.736L128.429 78.2101V68.1973H130.05V80.9541H128.315L121.622 70.9413V80.9541H120.001H120.001ZM135.562 74.7452C135.562 72.6307 136.132 70.9738 137.27 69.7772C138.407 68.5805 139.874 67.9836 141.673 67.9836C142.852 67.9836 143.912 68.2656 144.859 68.827C145.804 69.3881 146.525 70.172 147.021 71.1788C147.517 72.1826 147.766 73.3227 147.766 74.5968C147.766 75.8885 147.505 77.0465 146.983 78.0651C146.46 79.0867 145.72 79.8586 144.765 80.3812C143.805 80.9068 142.772 81.168 141.664 81.168C140.462 81.168 139.39 80.877 138.443 80.2979C137.498 79.719 136.78 78.9289 136.293 77.9255C135.805 76.9248 135.562 75.8647 135.562 74.7454V74.7452ZM137.308 74.7748C137.308 76.31 137.721 77.5183 138.546 78.4001C139.372 79.2821 140.408 79.7245 141.655 79.7245C142.926 79.7245 143.969 79.2791 144.791 78.3883C145.611 77.4978 146.021 76.2325 146.021 74.5936C146.021 73.5572 145.845 72.6515 145.495 71.8794C145.145 71.1073 144.631 70.5076 143.957 70.0829C143.28 69.6582 142.523 69.4444 141.682 69.4444C140.488 69.4444 139.461 69.8542 138.6 70.6738C137.739 71.4934 137.308 72.8594 137.308 74.7748V74.7748ZM153.059 80.9541V68.1973H154.751V79.4575H161.023V80.9539H153.059V80.9541ZM165.716 74.7452C165.716 72.6307 166.286 70.9738 167.423 69.7772C168.561 68.5805 170.027 67.9836 171.827 67.9836C173.006 67.9836 174.066 68.2656 175.013 68.827C175.957 69.3881 176.679 70.172 177.175 71.1788C177.671 72.1826 177.92 73.3227 177.92 74.5968C177.92 75.8885 177.659 77.0465 177.136 78.0651C176.613 79.0867 175.874 79.8586 174.918 80.3812C173.959 80.9068 172.925 81.168 171.818 81.168C170.615 81.168 169.543 80.877 168.596 80.2979C167.652 79.719 166.933 78.9289 166.446 77.9255C165.959 76.9248 165.716 75.8647 165.716 74.7454V74.7452ZM167.462 74.7748C167.462 76.31 167.875 77.5183 168.7 78.4001C169.525 79.2821 170.562 79.7245 171.809 79.7245C173.08 79.7245 174.122 79.2791 174.945 78.3883C175.764 77.4978 176.174 76.2325 176.174 74.5936C176.174 73.5572 175.999 72.6515 175.649 71.8794C175.298 71.1073 174.784 70.5076 174.11 70.0829C173.433 69.6582 172.676 69.4444 171.836 69.4444C170.642 69.4444 169.615 69.8542 168.754 70.6738C167.892 71.4934 167.462 72.8594 167.462 74.7748V74.7748ZM189.252 75.9476V74.4509H194.651V79.1784C193.822 79.8376 192.967 80.3364 192.085 80.6688C191.203 81.0016 190.298 81.1679 189.371 81.1679C188.118 81.1679 186.981 80.9006 185.956 80.3632C184.935 79.8286 184.16 79.0507 183.64 78.0381C183.118 77.0223 182.856 75.8881 182.856 74.6381C182.856 73.3968 183.115 72.2387 183.634 71.1606C184.154 70.0857 184.899 69.287 185.873 68.7674C186.847 68.2447 187.97 67.9834 189.241 67.9834C190.161 67.9834 190.996 68.132 191.741 68.4318C192.486 68.7315 193.071 69.1474 193.493 69.679C193.918 70.2133 194.238 70.9113 194.458 71.7693L192.935 72.1852C192.742 71.5378 192.504 71.0272 192.222 70.653C191.937 70.2819 191.533 69.9848 191.005 69.7623C190.479 69.5395 189.894 69.4267 189.25 69.4267C188.481 69.4267 187.816 69.5455 187.251 69.78C186.69 70.0146 186.239 70.3234 185.891 70.7095C185.547 71.0925 185.28 71.5144 185.09 71.9715C184.766 72.7643 184.603 73.6195 184.603 74.543C184.603 75.6833 184.798 76.6364 185.188 77.4055C185.58 78.1718 186.15 78.7417 186.895 79.1129C187.644 79.484 188.436 79.671 189.277 79.671C190.007 79.671 190.72 79.5286 191.414 79.2463C192.109 78.9612 192.635 78.6614 192.994 78.3378V75.9476H189.253H189.252ZM203.931 80.9539V75.5497L199.014 68.1971H201.045L203.566 72.0574C204.035 72.7731 204.472 73.4887 204.869 74.2042C205.259 73.536 205.731 72.7877 206.28 71.9563L208.75 68.1969H210.719L205.624 75.5495V80.9537H203.931V80.9539ZM105.41 29.3656H105.653C105.832 28.5975 106.927 26.119 107.3 25.1847L109.817 18.9566C110.262 17.8771 110.183 18.2259 109.643 16.8747L107.96 12.7287H98.7303L102.096 21.0216C102.673 22.4637 103.199 23.7164 103.779 25.1673C104.084 25.93 104.327 26.4736 104.629 27.2319C104.834 27.7447 105.37 28.8939 105.409 29.3654L105.41 29.3656ZM121.683 47.2172C121.518 46.509 119.279 41.2864 119.133 40.6597C118.707 40.9717 117.048 45.5264 116.809 46.1089C114.215 52.4376 114.26 50.8185 115.593 54.1572L116.583 56.6896H127.633C127.838 55.8129 128.352 54.8378 128.692 53.9836C133.413 42.1016 138.479 30.1269 143.23 18.2455L145.485 12.7287H135.648L128.691 29.9379C127.515 32.8772 126.367 35.6931 125.204 38.5953L122.584 45.0835C122.423 45.487 122.312 45.7643 122.169 46.1245L121.683 47.217V47.2172ZM194.547 56.6896H214.341C214.793 56.6896 215.21 55.352 215.451 54.7637L217.793 49.4542C217.984 48.9997 218.185 48.8217 218.228 48.3105H204.141V12.7289H194.547V56.6896H194.547ZM97.0307 56.6896H108.081L109.133 53.9766C109.353 53.4868 109.495 53.0969 109.695 52.5951C114.208 41.2356 119.099 29.7044 123.625 18.315L125.307 14.1675C125.51 13.6662 125.762 13.325 125.812 12.7289H116.583C116.431 13.379 116.065 14.2072 115.802 14.8624L113.251 21.2983C112.951 22.0454 112.724 22.6778 112.436 23.3978L109.817 29.8866C108.662 32.77 107.595 35.5006 106.434 38.4045C106.134 39.1531 105.919 39.7578 105.619 40.5041C105.267 41.3812 103.142 46.6205 103.103 47.0965H102.859C102.701 46.4153 102.333 45.6602 102.062 44.9794C101.749 44.1979 101.504 43.5839 101.195 42.8104L89.2584 12.7291H79.3003C79.3457 13.2719 80.0994 14.8738 80.3429 15.4519L88.1659 34.7097C89.6342 38.3784 91.1418 41.97 92.6245 45.6738C93.1798 47.0616 96.9833 56.1189 97.0311 56.69L97.0307 56.6896ZM1.45749 24.387C1.45749 27.1989 2.01723 28.9694 3.60596 30.861C4.95917 32.4723 6.57786 33.5031 8.55294 34.293C11.3612 35.4159 14.1382 36.1314 17.0446 36.9738C20.7778 38.0558 26.7164 39.2468 26.7164 44.0601C26.7164 47.5072 23.7401 49.0634 20.9072 49.5446C19.532 49.7784 18.7633 49.6851 17.3656 49.6461C15.4153 49.5928 13.3683 48.6165 11.9354 47.5472C8.74891 45.1702 9.79768 42.8461 8.98643 42.8461H0C0 51.3289 9.56815 56.8115 17.4872 56.8115C21.3837 56.8115 23.8633 56.7392 27.4987 55.2857C28.4741 54.896 29.6665 54.2883 30.4754 53.7693C33.2275 52.0036 35.6964 48.9224 35.9387 45.5098C36.3235 40.0988 34.2733 36.1778 29.6329 33.8577C25.5935 31.8375 19.7831 31.0486 15.6194 29.6546C13.7988 29.0454 10.8079 27.6526 10.8079 25.3587C10.8079 22.8718 11.2648 21.5034 13.4244 20.2026C16.4473 18.3811 22.988 18.3184 25.3831 23.1703C25.6982 23.8081 26.0887 25.0431 26.1099 25.9658H35.3388C35.3388 24.5165 35.2222 23.6038 34.7789 22.2749C34.6031 21.7481 34.5014 21.4237 34.2883 20.9441C31.7864 15.3329 25.7725 12 19.3089 12C15.3515 12 12.1673 12.2165 8.66241 13.9831C4.82373 15.9184 1.45729 19.1128 1.45729 24.387H1.45749ZM163.458 23.6579H163.701C163.841 24.2618 164.2 24.9975 164.471 25.5605L169.34 36.7219C169.544 37.2125 170.1 38.2707 170.138 38.7164H156.9L158.514 34.9868C158.796 34.3319 159.038 33.73 159.33 33.1303C159.632 32.5067 159.877 31.8107 160.18 31.187L163.458 23.6579ZM139.17 56.6896H149.007C149.156 56.0496 153.259 46.8095 153.621 46.1247H173.537C173.679 46.7302 173.832 46.9008 174.058 47.4253C174.283 47.9463 174.444 48.2783 174.647 48.7789L178.152 56.6896H187.867L177.626 33.4136C177.401 32.9352 177.248 32.5552 177.019 32.0782C176.563 31.1285 176.252 30.2449 175.804 29.2851C174.944 27.4438 174.253 25.6472 173.375 23.8205C172.956 22.9479 168.591 13.1283 168.558 12.7291H158.6L157.403 15.417C156.331 18.0519 154.871 20.9647 153.76 23.6761L152.569 26.3701C152.119 27.3078 151.763 28.1946 151.348 29.1582C150.94 30.1065 150.51 31.0096 150.102 31.9184L139.17 56.6898L139.17 56.6896ZM244.094 23.6579L245.918 27.4207C246.922 29.6526 249.973 36.9742 250.895 38.7164H237.536C237.633 38.3017 237.767 38.169 237.936 37.7801C239.507 34.1639 241.681 28.979 243.285 25.642L244.095 23.6579H244.094ZM219.806 56.6896H229.643C229.829 55.888 232.496 50.1985 233.06 48.8135L234.257 46.1249H254.052C254.591 46.8169 257.978 55.1574 258.788 56.6898H268.504L260.084 37.5434C258.924 35.1304 257.666 31.8365 256.44 29.2851L249.785 14.2026C249.573 13.681 249.343 13.3642 249.194 12.7289H239.236L219.806 56.6896H219.806ZM36.7963 56.6896H46.6328C46.6701 56.2426 47.4864 54.5765 47.7291 54.0212L51.2473 46.1247H71.1635C71.2856 46.6496 71.4717 46.9675 71.6661 47.4433L73.4189 51.3983C73.8042 52.3228 74.171 53.136 74.5663 54.016C74.9521 54.8738 75.3466 55.8728 75.7787 56.6894H85.4941C85.2881 56.2613 85.1273 55.7951 84.9211 55.3187L75.8298 34.7788C73.6498 29.5312 70.8521 23.6663 68.5801 18.3483C68.3442 17.7952 66.2217 13.17 66.1852 12.7287H56.2271L53.1934 19.5311C52.9923 19.9768 52.7707 20.4662 52.6003 20.8818C52.205 21.8476 51.7837 22.7432 51.3714 23.6599C49.7197 27.3358 48.1608 31.033 46.5095 34.7073L36.7965 56.6896H36.7963Z" fill="black"/>
</svg>
