<svg width="156" height="26" viewBox="0 0 156 26" fill="none" xmlns="http://www.w3.org/2000/svg">
<path fill-rule="evenodd" clip-rule="evenodd" d="M7.43194 0.408062C4.87535 1.00992 2.52744 2.64744 1.59225 4.48062C0.746667 6.13768 0.866357 9.23597 1.82605 10.5312C3.09116 12.2391 4.44589 12.902 10.2198 14.6397C14.8555 16.0344 16.3113 17.6037 15.1153 19.9163C14.476 21.1526 13.0096 21.7749 10.7349 21.7749C8.48806 21.7749 6.43318 20.6692 5.78171 19.1098L5.34047 18.054H2.67039H0L0.197209 19.0403C0.507597 20.5923 1.86419 22.6478 3.23163 23.6385C5.47504 25.2636 7.63597 25.8946 10.9302 25.8862C14.2918 25.8781 16.5203 25.2105 18.4217 23.6422C22.2738 20.4645 21.3526 14.4741 16.7067 12.4924C16.0025 12.1919 13.9612 11.5616 12.1705 11.0915C8.60465 10.1554 8.01488 9.91442 6.97674 8.96899C5.06853 7.23101 7.37302 4.10047 10.5606 4.10047C12.4471 4.10047 14.4909 5.67659 15.0837 7.58884C15.227 8.05085 15.6502 8.13147 17.9318 8.13147H20.6118L20.4043 6.96868C19.9122 4.2093 17.2598 1.43008 14.271 0.542636C12.5457 0.0300776 9.30698 -0.0334883 7.43194 0.408062ZM32.5206 0.624806C32.3786 0.854574 21.8902 24.578 21.5594 25.4183C21.444 25.711 22.0874 25.8059 24.1851 25.8059H26.9637L28.2946 22.8602L29.6254 19.9144H35.4291H41.2329L42.4161 22.7361C43.067 24.2881 43.7606 25.6199 43.9575 25.6952C44.1544 25.7709 45.4462 25.7916 46.8279 25.7417L49.3405 25.6509L44.0664 13.7129C41.1653 7.14698 38.666 1.46109 38.5122 1.07721C38.2512 0.426357 38.0459 0.379535 35.4524 0.379535C33.9234 0.379535 32.604 0.489923 32.5206 0.624806ZM46.0214 0.79752C46.0778 1.04031 48.3566 6.76372 51.0853 13.516L56.0465 25.7929L59.3798 25.7994C61.213 25.8028 62.7132 25.6816 62.7132 25.5296C62.7132 25.3774 64.9457 19.7721 67.6744 13.0735C70.4031 6.37458 72.6357 0.777985 72.6357 0.636589C72.6357 0.495194 71.4722 0.379535 70.0505 0.379535H67.4651L63.6431 10.0695C61.5408 15.3991 59.7315 19.8648 59.622 19.9938C59.5126 20.1225 57.6713 15.7969 55.5309 10.3814L51.6391 0.534574L48.7789 0.444961C46.4313 0.371783 45.9374 0.434729 46.0214 0.79752ZM57.1318 0.462636C57.1318 0.648682 60.8357 9.76806 60.9631 9.89551C61.0298 9.96248 61.6667 8.56837 62.3783 6.79814L63.6719 3.57923L63.0747 2.05674L62.4775 0.534574L59.8046 0.444961C58.3346 0.395659 57.1318 0.403721 57.1318 0.462636ZM77.9011 1.78822C77.569 2.5631 75.8081 6.92372 73.9876 11.4781C72.1671 16.0329 70.5817 19.8704 70.4642 20.0062C70.3464 20.142 70.0012 19.5839 69.6967 18.7659C69.3923 17.9479 69.0428 17.1668 68.92 17.0304C68.6713 16.7532 66.4341 22.1278 66.4341 23.0031C66.4341 23.3092 66.6453 24.0651 66.9033 24.6828L67.3727 25.8059H70.5764H73.7805L78.5371 14.1005C81.1532 7.66233 83.4788 1.94171 83.7051 1.38729L84.1169 0.379535H81.311H78.5051L77.9011 1.78822ZM86.1963 12.8602C83.1668 19.7247 80.6902 25.4456 80.693 25.5733C80.6955 25.7011 81.9216 25.8059 83.4174 25.8059H86.1374L87.3882 22.9377L88.6391 20.0695H94.5098H100.38L101.62 22.9377L102.86 25.8059H105.577C107.072 25.8059 108.295 25.6893 108.295 25.547C108.295 25.4043 106.264 20.6952 103.781 15.0819C101.299 9.46853 98.8378 3.86419 98.3119 2.6276L97.356 0.379535H94.5302H91.7048L86.1963 12.8602ZM112.532 0.586357C112.419 0.699845 112.326 6.42388 112.326 13.306V25.8192L118.242 25.7352L124.158 25.6509L125.063 23.5271C125.562 22.3591 125.969 21.3476 125.969 21.2791C125.969 21.2105 124.155 21.1547 121.938 21.1547H117.907V10.7671V0.379535H115.323C113.902 0.379535 112.646 0.472558 112.532 0.586357ZM137.941 1.2431C137.3 2.4831 127.209 25.4081 127.209 25.6248C127.209 25.7243 128.445 25.8059 129.955 25.8059H132.7L133.966 22.9377L135.231 20.0695L141.075 19.9854L146.918 19.9014L148.114 22.7247C148.771 24.2772 149.476 25.6118 149.681 25.6902C149.885 25.7684 151.167 25.7916 152.531 25.7417L155.01 25.6509L151.802 18.364C150.037 14.3563 147.532 8.67039 146.234 5.72837L143.875 0.379535H141.131C138.444 0.379535 138.379 0.39721 137.941 1.2431ZM37.3392 11.2989C38.3336 13.5519 39.1473 15.4354 39.1473 15.4843C39.1473 15.5333 37.458 15.5733 35.3932 15.5733C31.9498 15.5733 31.6552 15.5284 31.835 15.0307C32.4738 13.2617 35.2927 6.97644 35.4012 7.07938C35.4726 7.14698 36.3448 9.04589 37.3392 11.2989ZM96.5064 11.2695L98.3392 15.4183L96.5082 15.5104C95.5011 15.5609 93.7839 15.5609 92.6924 15.5104L90.7079 15.4183L92.5705 11.1491C93.595 8.80093 94.4871 6.93395 94.5535 7C94.6195 7.06636 95.4986 8.9876 96.5064 11.2695ZM143.237 11.6738C144.143 13.7076 144.884 15.4174 144.884 15.4726C144.884 15.5281 143.209 15.5733 141.163 15.5733C138.924 15.5733 137.442 15.4515 137.442 15.2676C137.442 15.0995 138.239 13.1476 139.214 10.9299C140.638 7.69179 141.046 7.00403 141.288 7.43659C141.454 7.73302 142.331 9.63969 143.237 11.6738Z" fill="#011154"/>
</svg>
