<svg width="933" height="235" viewBox="0 0 933 235" fill="none" xmlns="http://www.w3.org/2000/svg">
<path fill-rule="evenodd" clip-rule="evenodd" d="M136.467 16.3971H56.1455C25.4344 16.3971 0.393066 41.4384 0.393066 72.1495V133.099V188.852H80.7144C111.425 188.852 136.467 163.81 136.467 133.099V72.1495V16.3971V16.3971Z" fill="#0C50F6"/>
<path fill-rule="evenodd" clip-rule="evenodd" d="M152.058 31.0438H71.7366C41.0255 31.0438 15.9842 56.0852 15.9842 86.7963V147.746V203.498H96.3055C127.017 203.498 152.058 178.457 152.058 147.746V86.7963V31.0438V31.0438Z" fill="#3490F8"/>
<path fill-rule="evenodd" clip-rule="evenodd" d="M167.65 45.6907H87.3291C56.618 45.6907 31.5767 70.732 31.5767 101.443V162.393V218.145H111.898C142.609 218.145 167.65 193.104 167.65 162.393V101.443V45.6907V45.6907Z" fill="#94C6FB"/>
<path d="M268.031 157.16V114.37H256.044V102.662H268.031V97.3659C268.031 88.2597 270.122 81.7088 274.303 77.7132C278.206 73.9035 283.92 71.9986 291.447 71.9986C298.974 71.9986 305.664 73.6247 311.518 76.8769L307.476 88.0274C303.016 85.7044 298.834 84.5429 294.932 84.5429C291.029 84.5429 288.334 85.5186 286.847 87.4699C285.361 89.3283 284.617 92.2088 284.617 96.1115V102.662H305.246V114.37H284.617V161.063L296.325 161.621V172.771H259.389V162.178L263.989 161.76C265.383 161.574 266.405 161.202 267.055 160.645C267.706 159.995 268.031 158.833 268.031 157.16ZM341.534 162.596C351.662 162.596 356.726 154.419 356.726 138.065C356.726 129.795 355.565 123.523 353.242 119.249C351.012 114.974 347.202 112.837 341.813 112.837C336.516 112.837 332.613 114.882 330.105 118.97C327.596 123.059 326.341 128.634 326.341 135.696C326.341 148.798 328.757 157.021 333.589 160.366C335.726 161.853 338.375 162.596 341.534 162.596ZM309.476 137.647C309.476 130.771 310.498 124.824 312.543 119.806C314.587 114.696 317.328 110.793 320.766 108.098C327.363 103.081 334.658 100.572 342.649 100.572C348.224 100.572 352.917 101.501 356.726 103.359C360.629 105.125 363.649 107.216 365.786 109.631C368.016 111.954 369.875 115.393 371.361 119.946C372.941 124.406 373.731 129.702 373.731 135.835C373.731 148.658 370.618 158.368 364.392 164.966C358.167 171.563 350.175 174.862 340.419 174.862C330.755 174.862 323.182 171.749 317.7 165.523C312.217 159.205 309.476 149.913 309.476 137.647ZM391.756 157.16V118.552C391.756 117.065 391.477 116.043 390.919 115.485C390.455 114.835 389.572 114.463 388.271 114.37L382.417 113.952V102.662H405.973V113.116C407.645 109.492 410.247 106.519 413.778 104.196C417.309 101.78 421.351 100.572 425.904 100.572C430.55 100.572 434.964 101.594 439.145 103.638V124.406L426.183 125.382V118.97C426.183 117.112 425.718 115.95 424.789 115.485C423.767 115.021 422.512 114.789 421.026 114.789C417.309 114.789 414.242 116.136 411.827 118.831C409.504 121.432 408.342 124.778 408.342 128.866V161.202L420.468 161.76V172.771H383.114V162.178L387.714 161.76C389.107 161.574 390.13 161.202 390.78 160.645C391.43 159.995 391.756 158.833 391.756 157.16ZM446.66 113.952V102.662H470.215V111.722C475.419 104.289 482.527 100.572 491.541 100.572C500.647 100.572 506.78 104.289 509.939 111.722C515.142 104.289 522.204 100.572 531.125 100.572C537.815 100.572 542.972 102.616 546.596 106.704C550.22 110.7 552.032 116.74 552.032 124.824V161.202L559.977 161.621V172.771H526.804V162.178L531.404 161.76C532.797 161.574 533.773 161.202 534.331 160.645C534.981 159.995 535.353 158.879 535.446 157.3V128.448C535.446 123.337 534.842 119.574 533.634 117.158C532.519 114.649 529.824 113.395 525.55 113.395C521.275 113.395 517.976 114.696 515.653 117.297C513.423 119.899 512.308 123.384 512.308 127.751V161.202L519.974 161.621V172.771H487.08V162.178L491.68 161.76C493.074 161.574 494.096 161.202 494.746 160.645C495.397 159.995 495.722 158.833 495.722 157.16V128.448C495.722 123.337 495.118 119.574 493.91 117.158C492.795 114.649 490.054 113.395 485.687 113.395C481.412 113.395 478.16 114.742 475.93 117.437C473.7 120.132 472.585 123.477 472.585 127.472V161.202L480.111 161.621V172.771H447.217V162.178L451.817 161.76C453.211 161.574 454.233 161.202 454.883 160.645C455.534 159.995 455.859 158.833 455.859 157.16H455.998V118.691C455.998 117.112 455.72 116.043 455.162 115.485C454.697 114.835 453.815 114.463 452.514 114.37L446.66 113.952ZM642.101 161.76V172.771H619.522V163.711C614.411 170.959 606.885 174.583 596.942 174.583C582.539 174.583 575.338 166.545 575.338 150.47V118.273C575.338 115.764 574.176 114.463 571.853 114.37L567.393 114.092V102.662H591.924V146.846C591.924 151.771 592.621 155.488 594.015 157.997C595.409 160.506 598.289 161.76 602.657 161.76C607.024 161.76 610.508 160.413 613.11 157.718C615.805 155.023 617.152 151.771 617.152 147.961V118.552C617.152 117.065 616.874 116.043 616.316 115.485C615.851 114.835 614.969 114.463 613.668 114.37L609.208 114.092V102.662H633.739V157.3C633.739 158.787 633.971 159.809 634.436 160.366C634.9 160.831 635.829 161.156 637.223 161.342L642.101 161.76ZM675.528 73.3924V161.202L683.473 161.621V172.771H650.3V162.178L654.9 161.76C657.594 161.481 658.942 159.995 658.942 157.3V88.5849C658.942 86.5407 657.78 85.4256 655.457 85.2398L650.579 84.961V73.3924H675.528ZM717.322 102.662V161.202L725.266 161.621V172.771H692.094V162.178L696.693 161.76C699.388 161.481 700.735 159.995 700.735 157.3V118.552C700.735 116.972 700.456 115.904 699.899 115.346C699.434 114.789 698.552 114.51 697.251 114.51L692.372 114.231V102.662H717.322ZM699.76 90.6757C697.808 88.7243 696.833 86.2619 696.833 83.2885C696.833 80.315 697.808 77.8526 699.76 75.9013C701.711 73.857 704.266 72.8349 707.426 72.8349C710.585 72.8349 713.14 73.857 715.091 75.9013C717.136 77.8526 718.158 80.315 718.158 83.2885C718.158 86.2619 717.136 88.7243 715.091 90.6757C713.14 92.5341 710.585 93.4633 707.426 93.4633C704.266 93.4633 701.711 92.5341 699.76 90.6757ZM741.978 157.16V118.552C741.978 117.065 741.699 116.043 741.142 115.485C740.677 114.835 739.794 114.463 738.493 114.37L732.639 113.952V102.662H756.195V113.116C757.867 109.492 760.469 106.519 764 104.196C767.531 101.78 771.573 100.572 776.126 100.572C780.772 100.572 785.186 101.594 789.367 103.638V124.406L776.405 125.382V118.97C776.405 117.112 775.94 115.95 775.011 115.485C773.989 115.021 772.735 114.789 771.248 114.789C767.531 114.789 764.465 116.136 762.049 118.831C759.726 121.432 758.564 124.778 758.564 128.866V161.202L770.69 161.76V172.771H733.336V162.178L737.936 161.76C739.33 161.574 740.352 161.202 741.002 160.645C741.653 159.995 741.978 158.833 741.978 157.16ZM796.346 174.862C793.094 174.862 790.585 173.979 788.82 172.214C787.054 170.355 786.171 167.986 786.171 165.105C786.171 162.132 787.054 159.716 788.82 157.857C790.678 155.906 793.14 154.93 796.207 154.93C799.366 154.93 801.875 155.86 803.733 157.718C805.592 159.483 806.521 161.853 806.521 164.826C806.521 167.707 805.638 170.123 803.873 172.074C802.107 173.933 799.598 174.862 796.346 174.862ZM841.866 102.662V161.202L849.811 161.621V172.771H816.638V162.178L821.238 161.76C823.932 161.481 825.28 159.995 825.28 157.3V118.552C825.28 116.972 825.001 115.904 824.444 115.346C823.979 114.789 823.096 114.51 821.795 114.51L816.917 114.231V102.662H841.866ZM824.304 90.6757C822.353 88.7243 821.377 86.2619 821.377 83.2885C821.377 80.315 822.353 77.8526 824.304 75.9013C826.256 73.857 828.811 72.8349 831.97 72.8349C835.129 72.8349 837.685 73.857 839.636 75.9013C841.68 77.8526 842.702 80.315 842.702 83.2885C842.702 86.2619 841.68 88.7243 839.636 90.6757C837.685 92.5341 835.129 93.4633 831.97 93.4633C828.811 93.4633 826.256 92.5341 824.304 90.6757ZM892.865 100.572C896.861 100.572 900.671 101.129 904.295 102.244V88.1668C904.295 86.1225 903.087 85.0075 900.671 84.8216L894.677 84.4035V73.3924H920.602V158.136C920.695 160.273 921.857 161.342 924.087 161.342L928.965 161.621V172.771H906.385V164.548L905.967 164.408C901.786 171.191 895.467 174.583 887.011 174.583C876.419 174.583 868.985 171.052 864.71 163.99C860.808 157.579 858.856 149.727 858.856 140.435C858.856 128.355 861.83 118.691 867.777 111.443C873.817 104.196 882.18 100.572 892.865 100.572ZM904.295 151.028V114.928C900.95 113.441 897.419 112.698 893.702 112.698C887.569 112.698 883.062 115.16 880.182 120.085C877.394 125.01 876 131.282 876 138.902C876 154.512 881.018 162.318 891.054 162.318C894.863 162.318 898.023 161.249 900.531 159.112C903.04 156.882 904.295 154.187 904.295 151.028Z" fill="#FFFFFF"/>
</svg>
