<svg width="167" height="24" viewBox="0 0 167 24" fill="none" xmlns="http://www.w3.org/2000/svg">
<path fill-rule="evenodd" clip-rule="evenodd" d="M30.4989 6.31371C28.0898 6.99048 26.8612 9.25599 27.1072 12.5692C27.2729 14.8044 27.5497 15.4439 28.8572 16.6122C31.3192 18.812 35.37 18.172 36.6412 15.3826C37.4821 13.5366 36.1634 13.3278 34.8535 15.0994C34.0552 16.1795 33.3985 16.5298 32.1714 16.5298C29.7491 16.5298 28.6798 15.0754 28.6798 11.7798C28.6798 9.54659 28.8753 8.93403 29.8368 8.15583C31.4167 6.87581 33.1413 6.98019 34.605 8.44397C35.9591 9.79799 36.7657 10.0126 36.7657 9.0193C36.7657 8.09457 34.78 6.4127 33.3353 6.11426C32.6615 5.97509 31.3849 6.06477 30.4989 6.31371ZM74.2547 6.42201C72.3484 7.26001 71.554 8.25579 71.0669 10.4145C70.519 12.8442 71.3002 15.2444 73.1438 16.7959C74.461 17.904 75.0314 18.0676 76.8628 17.8613C79.7737 17.533 81.387 15.8928 81.7221 12.9201C82.0157 10.3145 81.2439 8.06663 79.711 7.06202C78.0463 5.97117 75.8621 5.71487 74.2547 6.42201ZM102.096 6.30097C99.6948 6.97725 98.5123 8.83553 98.5123 11.9327C98.5123 14.1369 98.7402 14.8088 99.9423 16.1545C101.208 17.5707 101.664 17.755 103.903 17.755C106.142 17.755 106.598 17.5707 107.864 16.1545C108.998 14.8852 109.294 14.0948 109.294 12.3325C109.294 7.64813 106.28 5.12289 102.096 6.30097ZM117.778 6.28382C115.369 6.98852 114.194 8.84092 114.194 11.9327C114.194 14.1002 114.427 14.8152 115.542 16.0623C117.224 17.9451 120.018 18.4464 122.665 17.3404C124.428 16.6038 124.485 16.5014 124.485 14.0776V11.5754L122.196 11.7249C119.423 11.9057 118.609 13.0995 121.259 13.0995C122.799 13.0995 123.015 13.2484 123.015 14.3075C123.015 16.7072 118.925 17.3855 116.867 15.3268C115.168 13.6273 115.168 10.1214 116.867 8.42192C118.468 6.82092 120.711 6.83023 122.325 8.44397C124.441 10.56 125.388 9.73967 123.383 7.52757C122.096 6.10838 119.981 5.6394 117.778 6.28382ZM0.0117188 6.97382C0.0117188 7.48592 0.527252 7.70889 1.70975 7.70889H3.40779L3.54745 12.7319C3.66065 16.8082 3.8258 17.755 4.4222 17.755C5.01859 17.755 5.18374 16.8082 5.29694 12.7319L5.43661 7.70889H7.13464C8.31713 7.70889 8.83267 7.48592 8.83267 6.97382C8.83267 6.37497 8.01575 6.23874 4.4222 6.23874C0.828639 6.23874 0.0117188 6.37497 0.0117188 6.97382ZM13.7332 12.1194V18H17.8986C21.2746 18 22.0641 17.8608 22.0641 17.2649C22.0641 16.6818 21.3565 16.5298 18.6337 16.5298H15.2034V14.5696V12.6094H18.3887C20.8934 12.6094 21.574 12.4521 21.574 11.8743C21.574 11.2966 20.8934 11.1393 18.3887 11.1393H15.2034V9.44662V7.75349L18.472 7.60892C20.5415 7.51679 21.8151 7.23894 21.9435 6.8513C22.095 6.3931 21.0859 6.23874 17.9393 6.23874H13.7332V12.1194ZM42.1563 12.1194C42.1563 17.0199 42.2788 18 42.8913 18C43.4632 18 43.6264 17.3468 43.6264 15.0597V12.1194H46.5667H49.507V15.0597C49.507 17.3468 49.6702 18 50.2421 18C50.8547 18 50.9772 17.0199 50.9772 12.1194C50.9772 7.21884 50.8547 6.23874 50.2421 6.23874C49.6869 6.23874 49.507 6.83758 49.507 8.689V11.1393H46.5667H43.6264V8.689C43.6264 6.83758 43.4466 6.23874 42.8913 6.23874C42.2788 6.23874 42.1563 7.21884 42.1563 12.1194ZM56.4746 11.9567C56.5721 15.9937 56.7932 17.7349 57.2254 17.8785C57.6855 18.0309 57.8379 16.9733 57.8379 13.6302C57.8379 11.1819 58.0036 9.18248 58.2055 9.18689C58.4074 9.19081 59.8692 11.1755 61.454 13.5974C63.0384 16.0187 64.6369 18 65.0069 18C65.5386 18 65.6788 16.7749 65.6788 12.1194C65.6788 7.21884 65.5563 6.23874 64.9437 6.23874C64.3434 6.23874 64.2081 7.07036 64.2057 10.7717L64.2028 15.3047L61.1963 10.7717C59.1675 7.71282 57.8884 6.23874 57.2631 6.23874C56.3996 6.23874 56.3462 6.62686 56.4746 11.9567ZM86.7511 12.1194V18H90.4265C93.3668 18 94.1019 17.853 94.1019 17.2649C94.1019 16.693 93.4486 16.5298 91.1616 16.5298H88.2212V11.3843C88.2212 7.137 88.0928 6.23874 87.4862 6.23874C86.8736 6.23874 86.7511 7.21884 86.7511 12.1194ZM129.197 6.8513C129.394 7.18846 130.4 8.71987 131.431 10.2547C132.989 12.5737 133.306 13.4646 133.306 15.5228C133.306 17.3982 133.484 18 134.041 18C134.603 18 134.776 17.383 134.776 15.3861C134.776 13.1539 135.048 12.384 136.634 10.118C139.364 6.21668 139.354 6.23775 138.358 6.24511C137.827 6.24903 136.779 7.31979 135.746 8.91246L134.02 11.5735L132.315 8.90854C131.284 7.29676 130.26 6.24266 129.724 6.24119C129.15 6.23972 128.964 6.45436 129.197 6.8513ZM79.0092 8.71252C80.3559 10.0597 80.4774 10.4302 80.2451 12.4908C79.9398 15.1994 78.6059 16.5298 76.1963 16.5298C73.9656 16.5298 72.5395 14.6799 72.5395 11.7861C72.5395 7.57021 76.1507 5.85453 79.0092 8.71252ZM105.541 7.7628C107.9 8.83798 108.599 12.9618 106.807 15.2386C106.024 16.2348 105.36 16.5298 103.903 16.5298C101.391 16.5298 99.9825 14.825 99.9825 11.7861C99.9825 8.21904 102.517 6.38477 105.541 7.7628Z" fill="#011154"/>
<path d="M159.262 9.293L154.969 13.586L150.676 9.293L149.262 10.707L154.969 16.414L160.676 10.707L159.262 9.293Z" fill="#011154"/>
</svg>
