<svg width="139" height="12" viewBox="0 0 139 12" fill="none" xmlns="http://www.w3.org/2000/svg">
<path fill-rule="evenodd" clip-rule="evenodd" d="M30.4989 0.313713C28.0898 0.990476 26.8612 3.25599 27.1072 6.56924C27.2729 8.80437 27.5497 9.44389 28.8572 10.6122C31.3192 12.812 35.37 12.172 36.6412 9.38263C37.4821 7.5366 36.1634 7.32784 34.8535 9.09938C34.0552 10.1795 33.3985 10.5298 32.1714 10.5298C29.7491 10.5298 28.6798 9.07537 28.6798 5.77977C28.6798 3.54659 28.8753 2.93403 29.8368 2.15583C31.4167 0.875808 33.1413 0.980186 34.605 2.44397C35.9591 3.79799 36.7657 4.01264 36.7657 3.0193C36.7657 2.09457 34.78 0.412704 33.3353 0.114261C32.6615 -0.0249135 31.3849 0.0647662 30.4989 0.313713ZM74.2547 0.422015C72.3484 1.26001 71.554 2.25579 71.0669 4.41448C70.519 6.84416 71.3002 9.24444 73.1438 10.7959C74.461 11.904 75.0314 12.0676 76.8628 11.8613C79.7737 11.533 81.387 9.89278 81.7221 6.92012C82.0157 4.31451 81.2439 2.06663 79.711 1.06202C78.0463 -0.0288348 75.8621 -0.285131 74.2547 0.422015ZM102.096 0.300974C99.6948 0.977247 98.5123 2.83553 98.5123 5.93266C98.5123 8.13692 98.7402 8.80878 99.9423 10.1545C101.208 11.5707 101.664 11.755 103.903 11.755C106.142 11.755 106.598 11.5707 107.864 10.1545C108.998 8.88523 109.294 8.09477 109.294 6.33254C109.294 1.64813 106.28 -0.877113 102.096 0.300974ZM117.778 0.283822C115.369 0.988518 114.194 2.84092 114.194 5.93266C114.194 8.10017 114.427 8.81515 115.542 10.0623C117.224 11.9451 120.018 12.4464 122.665 11.3404C124.428 10.6038 124.485 10.5014 124.485 8.07762V5.57541L122.196 5.72488C119.423 5.90571 118.609 7.09948 121.259 7.09948C122.799 7.09948 123.015 7.24845 123.015 8.30745C123.015 10.7072 118.925 11.3855 116.867 9.32676C115.168 7.62726 115.168 4.12142 116.867 2.42192C118.468 0.820918 120.711 0.83023 122.325 2.44397C124.441 4.56002 125.388 3.73967 123.383 1.52757C122.096 0.108382 119.981 -0.360597 117.778 0.283822ZM0.0117188 0.973815C0.0117188 1.48592 0.527252 1.70889 1.70975 1.70889H3.40779L3.54745 6.73193C3.66065 10.8082 3.8258 11.755 4.4222 11.755C5.01859 11.755 5.18374 10.8082 5.29694 6.73193L5.43661 1.70889H7.13464C8.31713 1.70889 8.83267 1.48592 8.83267 0.973815C8.83267 0.374971 8.01575 0.238739 4.4222 0.238739C0.828639 0.238739 0.0117188 0.374971 0.0117188 0.973815ZM13.7332 6.11937V12H17.8986C21.2746 12 22.0641 11.8608 22.0641 11.2649C22.0641 10.6818 21.3565 10.5298 18.6337 10.5298H15.2034V8.56963V6.60942H18.3887C20.8934 6.60942 21.574 6.45212 21.574 5.87435C21.574 5.29657 20.8934 5.13926 18.3887 5.13926H15.2034V3.44662V1.75349L18.472 1.60892C20.5415 1.51679 21.8151 1.23894 21.9435 0.851303C22.095 0.393104 21.0859 0.238739 17.9393 0.238739H13.7332V6.11937ZM42.1563 6.11937C42.1563 11.0199 42.2788 12 42.8913 12C43.4632 12 43.6264 11.3468 43.6264 9.05969V6.11937H46.5667H49.507V9.05969C49.507 11.3468 49.6702 12 50.2421 12C50.8547 12 50.9772 11.0199 50.9772 6.11937C50.9772 1.21884 50.8547 0.238739 50.2421 0.238739C49.6869 0.238739 49.507 0.837578 49.507 2.689V5.13926H46.5667H43.6264V2.689C43.6264 0.837578 43.4466 0.238739 42.8913 0.238739C42.2788 0.238739 42.1563 1.21884 42.1563 6.11937ZM56.4746 5.95668C56.5721 9.99373 56.7932 11.7349 57.2254 11.8785C57.6855 12.0309 57.8379 10.9733 57.8379 7.6302C57.8379 5.1819 58.0036 3.18248 58.2055 3.18689C58.4074 3.19081 59.8692 5.17553 61.454 7.59737C63.0384 10.0187 64.6369 12 65.0069 12C65.5386 12 65.6788 10.7749 65.6788 6.11937C65.6788 1.21884 65.5563 0.238739 64.9437 0.238739C64.3434 0.238739 64.2081 1.07036 64.2057 4.77173L64.2028 9.30472L61.1963 4.77173C59.1675 1.71282 57.8884 0.238739 57.2631 0.238739C56.3996 0.238739 56.3462 0.62686 56.4746 5.95668ZM86.7511 6.11937V12H90.4265C93.3668 12 94.1019 11.853 94.1019 11.2649C94.1019 10.693 93.4486 10.5298 91.1616 10.5298H88.2212V5.38429C88.2212 1.137 88.0928 0.238739 87.4862 0.238739C86.8736 0.238739 86.7511 1.21884 86.7511 6.11937ZM129.197 0.851303C129.394 1.18846 130.4 2.71987 131.431 4.25472C132.989 6.57365 133.306 7.46456 133.306 9.52279C133.306 11.3982 133.484 12 134.041 12C134.603 12 134.776 11.383 134.776 9.38606C134.776 7.15387 135.048 6.384 136.634 4.11799C139.364 0.216681 139.354 0.237754 138.358 0.245105C137.827 0.249026 136.779 1.31979 135.746 2.91246L134.02 5.57345L132.315 2.90854C131.284 1.29676 130.26 0.242657 129.724 0.241186C129.15 0.239716 128.964 0.454361 129.197 0.851303ZM79.0092 2.71252C80.3559 4.05968 80.4774 4.43016 80.2451 6.49084C79.9398 9.19936 78.6059 10.5298 76.1963 10.5298C73.9656 10.5298 72.5395 8.67989 72.5395 5.78613C72.5395 1.57021 76.1507 -0.145466 79.0092 2.71252ZM105.541 1.7628C107.9 2.83798 108.599 6.96177 106.807 9.23856C106.024 10.2348 105.36 10.5298 103.903 10.5298C101.391 10.5298 99.9825 8.82495 99.9825 5.78613C99.9825 2.21904 102.517 0.384773 105.541 1.7628Z" fill="#011154"/>
</svg>
